<?xml version="1.0" encoding="utf-8"?>
<!-- Generator: Adobe Illustrator 16.0.0, SVG Export Plug-In . SVG Version: 6.00 Build 0)  -->
<!DOCTYPE svg PUBLIC "-//W3C//DTD SVG 1.1//EN" "http://www.w3.org/Graphics/SVG/1.1/DTD/svg11.dtd">
<svg version="1.1" id="Vrstva_1" xmlns="http://www.w3.org/2000/svg" xmlns:xlink="http://www.w3.org/1999/xlink" x="0px" y="0px"
	 width="166.217px" height="55.727px" viewBox="0 0 166.217 55.727" enable-background="new 0 0 166.217 55.727"
	 xml:space="preserve">
<g>
	<g>
		<path d="M77.222,10.52c-2.087,0-3.396,1.072-3.396,3.069v2.619c0,2.01,1.309,3.082,3.37,3.082s3.358-1.035,3.358-2.96v-0.062
			h-1.469v0.062c0,1.096-0.717,1.693-1.89,1.693s-1.901-0.634-1.901-1.815v-2.619c0-1.169,0.729-1.814,1.927-1.814
			c1.147,0,1.864,0.608,1.864,1.705v0.049h1.469V13.48C80.555,11.555,79.258,10.52,77.222,10.52z"/>
	</g>
	<g>
		<polygon points="87.925,17.902 83.282,17.902 87.925,11.896 87.925,10.642 81.541,10.642 81.541,11.896 86.171,11.896 
			81.541,17.902 81.541,19.168 87.925,19.168 		"/>
	</g>
	<g>
		<path d="M92.368,19.168h2.556v-1.267h-2.556c-1.173,0-1.901-0.634-1.901-1.815v-0.561h3.84v-1.254h-3.84v-0.561
			c0-1.17,0.729-1.815,1.927-1.815h2.53v-1.254h-2.53c-2.087,0-3.396,1.071-3.396,3.069v2.375
			C88.997,18.096,90.307,19.168,92.368,19.168z"/>
	</g>
	<g>
		<path d="M99.467,19.291c2.061,0,3.357-1.035,3.357-2.96v-0.062h-1.469v0.062c0,1.096-0.717,1.693-1.889,1.693
			c-1.174,0-1.902-0.634-1.902-1.815v-2.619c0-1.169,0.729-1.814,1.926-1.814c1.148,0,1.865,0.608,1.865,1.705v0.049h1.469V13.48
			c0-1.925-1.297-2.96-3.334-2.96c-2.086,0-3.395,1.072-3.395,3.069v2.619C96.096,18.218,97.404,19.291,99.467,19.291z"/>
	</g>
	<g>
		<polygon points="105.676,15.526 109.404,15.526 109.404,19.168 110.873,19.168 110.873,10.642 109.404,10.642 109.404,14.272 
			105.676,14.272 105.676,10.642 104.207,10.642 104.207,19.168 105.676,19.168 		"/>
	</g>
	<g>
		<path d="M77.357,22.753h-3.408v8.526h1.47v-3.033h1.938c1.74,0,2.851-0.828,2.851-2.753S79.086,22.753,77.357,22.753z
			 M77.309,26.993h-1.89v-2.984h1.89c0.839,0,1.394,0.401,1.394,1.485C78.702,26.579,78.159,26.993,77.309,26.993z"/>
	</g>
	<g>
		<path d="M84.356,31.402c2,0,3.223-0.853,3.223-2.595c0-1.291-0.791-2.07-2.26-2.339l-1.53-0.268
			c-0.667-0.122-1.112-0.5-1.112-1.121c0-0.804,0.568-1.193,1.692-1.193c1.11,0,1.716,0.45,1.716,1.327v0.159h1.47v-0.159
			c0-1.717-1.187-2.582-3.186-2.582c-2.013,0-3.198,0.853-3.198,2.546c0,1.315,0.853,2.095,2.26,2.351l1.53,0.269
			c0.667,0.122,1.111,0.487,1.111,1.121c0,0.853-0.593,1.218-1.716,1.218c-1.111,0-1.753-0.438-1.753-1.316v-0.158h-1.469v0.158
			C81.135,30.538,82.356,31.402,84.356,31.402z"/>
	</g>
	<g>
		<path d="M91.479,28.198v3.082h1.469v-3.082c1.605-0.231,2.594-1.255,2.594-2.972v-2.473h-1.47v2.473
			c0,1.145-0.716,1.767-1.877,1.767c-1.136,0-1.852-0.622-1.852-1.767v-2.473h-1.469v2.473
			C88.875,26.956,89.862,27.979,91.479,28.198z"/>
	</g>
	<g>
		<path d="M103.627,28.38h-1.469v0.062c0,1.097-0.717,1.693-1.89,1.693s-1.9-0.634-1.9-1.815v-2.619
			c0-1.169,0.728-1.814,1.926-1.814c1.147,0,1.864,0.609,1.864,1.705v0.049h1.469v-0.049c0-1.925-1.296-2.96-3.333-2.96
			c-2.086,0-3.396,1.072-3.396,3.069v2.619c0,2.01,1.31,3.082,3.37,3.082c2.063,0,3.358-1.036,3.358-2.96V28.38z"/>
	</g>
	<g>
		<polygon points="111.677,31.28 111.677,22.753 110.207,22.753 110.207,26.383 106.479,26.383 106.479,22.753 105.01,22.753 
			105.01,31.28 106.479,31.28 106.479,27.638 110.207,27.638 110.207,31.28 		"/>
	</g>
	<g>
		<path d="M116.527,31.28h2.556v-1.267h-2.556c-1.173,0-1.901-0.634-1.901-1.815v-0.56h3.839v-1.255h-3.839v-0.561
			c0-1.169,0.729-1.814,1.926-1.814h2.531v-1.255h-2.531c-2.086,0-3.395,1.071-3.395,3.069v2.375
			C113.157,30.208,114.466,31.28,116.527,31.28z"/>
	</g>
	<g>
		<path d="M123.662,22.753h-3.284v8.526h3.26c2.086,0,3.407-1.06,3.407-3.058V25.81C127.045,23.813,125.724,22.753,123.662,22.753z
			 M125.576,28.222c0,1.17-0.741,1.791-1.938,1.791h-1.791v-6.005h1.815c1.173,0,1.914,0.633,1.914,1.802V28.222z"/>
	</g>
	<g>
		<path d="M128.427,25.823v2.375c0,2.01,1.309,3.082,3.371,3.082h2.556v-1.267h-2.556c-1.174,0-1.902-0.634-1.902-1.815v-0.56h3.841
			v-1.255h-3.841v-0.561c0-1.169,0.729-1.814,1.927-1.814h2.531v-1.255h-2.531C129.735,22.753,128.427,23.825,128.427,25.823z"/>
	</g>
	<g>
		<polygon points="137.118,22.753 135.649,22.753 135.649,31.28 141.452,31.28 141.452,30.013 137.118,30.013 		"/>
	</g>
	<g>
		<polygon points="142.254,24.008 143.957,24.008 143.957,30.013 142.254,30.013 142.254,31.28 147.117,31.28 147.117,30.013 
			145.414,30.013 145.414,24.008 147.117,24.008 147.117,22.753 142.254,22.753 		"/>
	</g>
	<g>
		<path d="M155.08,25.64v-0.049c0-1.925-1.296-2.96-3.332-2.96c-2.087,0-3.396,1.072-3.396,3.069v2.619
			c0,2.01,1.31,3.082,3.37,3.082c2.063,0,3.358-1.036,3.358-2.96V28.38h-1.469v0.062c0,1.097-0.717,1.693-1.89,1.693
			s-1.9-0.634-1.9-1.815v-2.619c0-1.169,0.728-1.814,1.927-1.814c1.146,0,1.863,0.609,1.863,1.705v0.049H155.08z"/>
	</g>
	<g>
		<path d="M77.949,38.58l-1.53-0.268c-0.667-0.122-1.112-0.5-1.112-1.12c0-0.804,0.568-1.194,1.692-1.194
			c1.111,0,1.717,0.45,1.717,1.328v0.158h1.469v-0.158c0-1.718-1.186-2.583-3.186-2.583c-2.013,0-3.198,0.853-3.198,2.546
			c0,1.315,0.853,2.096,2.261,2.351l1.53,0.269c0.667,0.122,1.11,0.487,1.11,1.121c0,0.853-0.592,1.217-1.716,1.217
			c-1.111,0-1.753-0.438-1.753-1.315v-0.158h-1.469v0.158c0,1.719,1.222,2.583,3.222,2.583c2.001,0,3.222-0.853,3.222-2.595
			C80.208,39.627,79.419,38.848,77.949,38.58z"/>
	</g>
	<g>
		<path d="M84.911,34.743c-2.086,0-3.406,1.071-3.406,3.069v2.619c0,2.01,1.32,3.082,3.383,3.082c2.087,0,3.407-1.072,3.407-3.082
			v-2.619C88.295,35.814,86.975,34.743,84.911,34.743z M86.826,40.431c0,1.182-0.741,1.814-1.938,1.814
			c-1.173,0-1.914-0.633-1.914-1.814v-2.619c0-1.169,0.741-1.814,1.938-1.814c1.174,0,1.915,0.646,1.915,1.814V40.431z"/>
	</g>
	<g>
		<path d="M93.047,34.743c-2.086,0-3.395,1.071-3.395,3.069v2.619c0,2.01,1.309,3.082,3.369,3.082c2.063,0,3.359-1.035,3.359-2.96
			v-0.062h-1.469v0.062c0,1.097-0.717,1.692-1.891,1.692c-1.172,0-1.9-0.633-1.9-1.814v-2.619c0-1.169,0.729-1.814,1.926-1.814
			c1.148,0,1.865,0.608,1.865,1.706v0.048h1.469v-0.048C96.381,35.778,95.084,34.743,93.047,34.743z"/>
	</g>
	<g>
		<polygon points="97.515,36.119 99.22,36.119 99.22,42.125 97.515,42.125 97.515,43.391 102.381,43.391 102.381,42.125 
			100.677,42.125 100.677,36.119 102.381,36.119 102.381,34.865 97.515,34.865 		"/>
	</g>
	<g>
		<path d="M103.614,37.934v2.376c0,2.01,1.309,3.081,3.371,3.081h2.556v-1.267h-2.556c-1.174,0-1.902-0.634-1.902-1.814v-0.562h3.84
			v-1.254h-3.84v-0.561c0-1.169,0.729-1.815,1.926-1.815h2.532v-1.254h-2.532C104.923,34.865,103.614,35.936,103.614,37.934z"/>
	</g>
	<g>
		<path d="M110.133,36.119h2.494v4.191c0,2.01,1.309,3.081,3.383,3.081h0.876v-1.267h-0.876c-1.186,0-1.926-0.634-1.926-1.814
			v-4.191h2.802v-1.254h-6.753V36.119z"/>
	</g>
	<g>
		<path d="M123.317,37.337c0,1.146-0.716,1.767-1.878,1.767c-1.136,0-1.851-0.621-1.851-1.767v-2.473h-1.469v2.473
			c0,1.729,0.986,2.753,2.604,2.973v3.081h1.469V40.31c1.604-0.232,2.593-1.255,2.593-2.973v-2.473h-1.469V37.337z"/>
	</g>
	<g>
		<path d="M34.917,20.984c0.767-0.269,1.588-0.423,2.447-0.423c0.799,0,1.565,0.131,2.286,0.365
			c0.208-1.523,0.244-3.068,0.064-4.604c-0.777-0.158-1.582-0.241-2.406-0.241c-0.828,0-1.638,0.085-2.419,0.244
			C34.701,17.875,34.701,19.44,34.917,20.984z"/>
	</g>
	<g>
		<path d="M32.48,22.418c-1.247-0.949-2.604-1.759-4.043-2.389c-1.07,1.189-1.901,2.588-2.412,4.134
			c1.282,0.929,2.687,1.687,4.162,2.277C30.487,24.855,31.313,23.456,32.48,22.418z"/>
	</g>
	<g>
		<path d="M30.204,29.204c-1.473,0.593-2.87,1.365-4.153,2.292c0.521,1.543,1.358,2.938,2.436,4.12
			c1.458-0.634,2.836-1.441,4.091-2.409C31.384,32.183,30.527,30.79,30.204,29.204z"/>
	</g>
	<g>
		<path d="M42.102,33.25c1.238,0.946,2.589,1.752,4.02,2.377c1.108-1.214,1.969-2.65,2.488-4.242
			c-1.25-0.896-2.625-1.627-4.085-2.188C44.197,30.807,43.322,32.221,42.102,33.25z"/>
	</g>
	<g>
		<path d="M44.533,26.396c1.432-0.594,2.798-1.347,4.051-2.255c-0.513-1.54-1.343-2.935-2.41-4.119
			c-1.419,0.611-2.755,1.41-3.986,2.346C43.376,23.4,44.221,24.802,44.533,26.396z"/>
	</g>
	<g>
		<path d="M39.666,34.606c-0.725,0.238-1.497,0.371-2.302,0.371c-0.847,0-1.655-0.148-2.409-0.41
			c-0.226,1.555-0.254,3.135-0.077,4.695c0.784,0.161,1.598,0.247,2.431,0.247c0.825,0,1.63-0.083,2.407-0.241
			C39.893,37.718,39.884,36.15,39.666,34.606z"/>
	</g>
	<g>
		<path d="M28.486,35.616c-1.964,0.853-4.072,1.393-6.214,1.577c-0.002,0.04-0.004,0.116-0.004,0.154
			c5.717,0.224,11.015,3.498,14.312,8.023c-0.22-0.826-0.672-1.57-0.896-2.393c-0.406-1.207-0.664-2.455-0.806-3.716
			C32.359,38.745,30.144,37.433,28.486,35.616z"/>
	</g>
	<g>
		<path d="M26.025,24.164c-0.843-0.609-1.637-1.285-2.363-2.035c-0.871-0.76-1.442-1.774-2.217-2.618
			c2.145,4.469,2.595,9.751,0.893,14.433c-0.284,0.869-0.728,1.676-1.046,2.531c1.255-1.94,2.886-3.623,4.759-4.979
			c-0.393-1.163-0.614-2.405-0.614-3.7C25.437,26.527,25.647,25.308,26.025,24.164z"/>
	</g>
	<g>
		<path d="M34.89,16.326c0.253-2.072,0.837-4.113,1.685-6.025c-3.151,4.358-8.134,7.475-13.577,8.005
			c-0.323,0.021-0.649,0.037-0.95,0.162c2.211,0.139,4.375,0.683,6.391,1.563C30.103,18.18,32.342,16.846,34.89,16.326z"/>
	</g>
	<g>
		<path d="M20.831,37.252c-3.888-6.495-3.233-15.269,1.602-21.116c2.348-2.977,5.653-5.112,9.279-6.216
			c-10.796,1.76-19.961,8.521-25.169,17.896c5.117,9.211,14.055,15.902,24.605,17.803C26.849,44.166,23.105,41.136,20.831,37.252z"
			/>
	</g>
	<g>
		<path d="M43.037,9.941c5.515,1.692,10.119,6.012,12.092,11.371c1.805,4.724,1.523,10.165-0.706,14.703l-0.714,1.24
			c-2.245,4.033-6.145,6.991-10.547,8.416c10.686-1.823,19.747-8.556,24.914-17.855C62.89,18.481,53.777,11.735,43.037,9.941z"/>
	</g>
	<g>
		<path d="M50.959,37c-1.671-0.233-3.299-0.703-4.838-1.374c-1.661,1.818-3.882,3.13-6.405,3.642
			c-0.24,2.105-0.82,4.177-1.692,6.109c0.263-0.261,0.49-0.555,0.71-0.854c3.288-4.3,8.558-6.931,13.962-7.307
			C52.136,37.025,51.541,37.056,50.959,37z"/>
	</g>
	<g>
		<path d="M46.174,20.022c1.768-0.761,3.651-1.249,5.583-1.387c-0.097-0.447-0.705-0.325-1.049-0.447
			c-5.111-0.757-9.678-3.793-12.685-7.882c0.689,1.749,1.378,3.523,1.623,5.4c0.031,0.205,0.044,0.41,0.068,0.616
			C42.265,16.84,44.508,18.173,46.174,20.022z"/>
	</g>
	<g>
		<path d="M48.609,31.384c1.96,1.406,3.614,3.221,4.812,5.432l-0.047-0.262c-3.183-5.504-2.967-12.177,0.206-17.701
			c-1.303,2.064-3.019,3.855-4.996,5.288c0.384,1.151,0.598,2.377,0.598,3.654C49.182,29.048,48.978,30.253,48.609,31.384z"/>
	</g>
	<g>
		<path d="M40.067,28.038c1.545,0.225,3.041,0.611,4.457,1.158c0.095-0.461,0.144-0.938,0.144-1.427c0-0.47-0.048-0.928-0.135-1.373
			c-1.965,0.814-4.06,1.318-6.204,1.428C38.888,28.022,39.487,27.974,40.067,28.038z"/>
	</g>
	<g>
		<path d="M36.58,26.674c-0.309-1.106-0.875-2.127-1.132-3.252c-0.244-0.803-0.416-1.618-0.531-2.438
			c-0.909,0.319-1.733,0.81-2.437,1.435C34.055,23.619,35.453,25.046,36.58,26.674z"/>
	</g>
	<g>
		<path d="M42.188,22.368c-0.73-0.638-1.59-1.133-2.537-1.441c-0.286,2.089-0.903,4.135-1.813,6.046
			C39.005,25.214,40.493,23.657,42.188,22.368z"/>
	</g>
	<g>
		<path d="M39.401,30.753c-0.399-0.499-0.766-1.03-1.246-1.459c0.216,0.853,0.62,1.644,0.865,2.487
			c0.299,0.925,0.511,1.87,0.646,2.824c0.903-0.297,1.729-0.761,2.436-1.356C41.125,32.502,40.217,31.669,39.401,30.753z"/>
	</g>
	<g>
		<path d="M35.387,27.771c-1.784-0.211-3.537-0.664-5.199-1.33c-0.082,0.431-0.13,0.874-0.13,1.328c0,0.492,0.052,0.97,0.146,1.435
			c1.485-0.6,3.049-1.016,4.646-1.221C35.061,27.988,35.239,27.916,35.387,27.771z"/>
	</g>
	<g>
		<path d="M36.449,29.289c-0.609,0.565-1.046,1.28-1.631,1.872c-0.687,0.745-1.439,1.428-2.241,2.046
			c0.691,0.592,1.495,1.057,2.378,1.36c0.206-1.427,0.578-2.83,1.128-4.169C36.235,30.039,36.361,29.668,36.449,29.289z"/>
	</g>
</g>
</svg>
